<mxfile host="app.diagrams.net" modified="2024-02-21T23:59:50.241Z" agent="Mozilla/5.0 (Windows NT 10.0; Win64; x64) AppleWebKit/537.36 (KHTML, like Gecko) Chrome/121.0.0.0 Safari/537.36 Edg/121.0.0.0" etag="nbAzcWg87D40fmmXqURV" version="23.1.5" type="google">
  <diagram name="Strona-1" id="wG5_umZCjteZVF7WjZrg">
    <mxGraphModel grid="1" page="1" gridSize="10" guides="1" tooltips="1" connect="1" arrows="1" fold="1" pageScale="1" pageWidth="850" pageHeight="1100" math="0" shadow="0">
      <root>
        <mxCell id="0" />
        <mxCell id="1" parent="0" />
        <mxCell id="nVaZI51FeeT5_AW7T5yP-10" value="" style="whiteSpace=wrap;html=1;fillColor=#fff2cc;strokeColor=none;" vertex="1" parent="1">
          <mxGeometry x="-221" y="60" width="280" height="1900" as="geometry" />
        </mxCell>
        <mxCell id="x6JtXPcbMbZOkAOCYJe6-2" value="(3.15 Six Feet Under)" style="rounded=0;whiteSpace=wrap;html=1;fillColor=#e1d5e7;strokeColor=#9673a6;" vertex="1" parent="1">
          <mxGeometry x="-180" y="80" width="200" height="60" as="geometry" />
        </mxCell>
        <mxCell id="x6JtXPcbMbZOkAOCYJe6-3" value="Transfer of knowledge in conversation / Rozmowa z przekazaniem informacji; (Cloister, Siegfried, Mission, Geralt)" style="rounded=0;whiteSpace=wrap;html=1;fillColor=#d5e8d4;strokeColor=#82b366;" vertex="1" parent="1">
          <mxGeometry x="-211" y="172.48000000000002" width="260" height="80" as="geometry" />
        </mxCell>
        <mxCell id="b_2GoEoPAxL19k0eejS7-5" style="edgeStyle=orthogonalEdgeStyle;rounded=0;orthogonalLoop=1;jettySize=auto;html=1;exitX=0;exitY=0.5;exitDx=0;exitDy=0;" edge="1" parent="1" source="FekDQM8jbrZTuftXHcIN-11" target="b_2GoEoPAxL19k0eejS7-1">
          <mxGeometry relative="1" as="geometry">
            <Array as="points">
              <mxPoint x="-340" y="577.48" />
            </Array>
          </mxGeometry>
        </mxCell>
        <mxCell id="FekDQM8jbrZTuftXHcIN-1" value="" style="endArrow=classic;html=1;rounded=0;exitX=0.5;exitY=1;exitDx=0;exitDy=0;" edge="1" parent="1" source="x6JtXPcbMbZOkAOCYJe6-2" target="x6JtXPcbMbZOkAOCYJe6-3">
          <mxGeometry width="50" height="50" relative="1" as="geometry">
            <mxPoint x="-40" y="312.48" as="sourcePoint" />
            <mxPoint x="10" y="262.48" as="targetPoint" />
          </mxGeometry>
        </mxCell>
        <mxCell id="FekDQM8jbrZTuftXHcIN-2" value="" style="endArrow=classic;html=1;rounded=0;exitX=0.5;exitY=1;exitDx=0;exitDy=0;" edge="1" parent="1" source="x6JtXPcbMbZOkAOCYJe6-3" target="FekDQM8jbrZTuftXHcIN-3">
          <mxGeometry width="50" height="50" relative="1" as="geometry">
            <mxPoint x="-110" y="352.48" as="sourcePoint" />
            <mxPoint x="-80" y="282.48" as="targetPoint" />
          </mxGeometry>
        </mxCell>
        <mxCell id="FekDQM8jbrZTuftXHcIN-3" value="&lt;span id=&quot;docs-internal-guid-4cfbbf0f-7fff-1ddc-6e00-4f36d3d0db7e&quot;&gt;&lt;span style=&quot;background-color: transparent ; vertical-align: baseline&quot;&gt;&lt;font&gt;&lt;font style=&quot;font-size: 12px;&quot;&gt;Location change / Zmiana lokacji; (Geralt, Cemetery&lt;/font&gt;&lt;/font&gt;&lt;/span&gt;&lt;/span&gt;)&lt;span id=&quot;docs-internal-guid-4cfbbf0f-7fff-1ddc-6e00-4f36d3d0db7e&quot;&gt;&lt;/span&gt;" style="rounded=0;whiteSpace=wrap;html=1;align=center;" vertex="1" parent="1">
          <mxGeometry x="-210" y="302.48" width="260" height="40" as="geometry" />
        </mxCell>
        <mxCell id="igLQ1kcN2VaOKkPszlF--9" value="Getting knowledge from item / Pozyskanie wiedzy z przedmiotu; (Vizima cemetery, Geralt, Corpse of a woman, Not_eaten)" style="rounded=0;whiteSpace=wrap;html=1;align=center;fillColor=#d5e8d4;strokeColor=#82b366;" vertex="1" parent="1">
          <mxGeometry x="-210" y="392.48" width="260" height="100" as="geometry" />
        </mxCell>
        <mxCell id="FekDQM8jbrZTuftXHcIN-5" value="" style="endArrow=classic;html=1;rounded=0;entryX=0.5;entryY=0;entryDx=0;entryDy=0;exitX=0.5;exitY=1;exitDx=0;exitDy=0;" edge="1" parent="1" source="FekDQM8jbrZTuftXHcIN-3" target="igLQ1kcN2VaOKkPszlF--9">
          <mxGeometry width="50" height="50" relative="1" as="geometry">
            <mxPoint x="-90" y="382.48" as="sourcePoint" />
            <mxPoint x="-40" y="332.48" as="targetPoint" />
          </mxGeometry>
        </mxCell>
        <mxCell id="FekDQM8jbrZTuftXHcIN-7" value="" style="endArrow=classic;html=1;rounded=0;entryX=0.5;entryY=0;entryDx=0;entryDy=0;exitX=0.5;exitY=1;exitDx=0;exitDy=0;fillColor=#d5e8d4;strokeColor=#82b366;strokeWidth=3;" edge="1" parent="1" source="igLQ1kcN2VaOKkPszlF--9" target="FekDQM8jbrZTuftXHcIN-11">
          <mxGeometry width="50" height="50" relative="1" as="geometry">
            <mxPoint x="-90" y="492.48" as="sourcePoint" />
            <mxPoint x="-80" y="522.48" as="targetPoint" />
          </mxGeometry>
        </mxCell>
        <mxCell id="FekDQM8jbrZTuftXHcIN-11" value="&lt;span id=&quot;docs-internal-guid-4cfbbf0f-7fff-1ddc-6e00-4f36d3d0db7e&quot;&gt;&lt;span style=&quot;background-color: transparent ; vertical-align: baseline&quot;&gt;&lt;font&gt;&lt;font style=&quot;font-size: 12px;&quot;&gt;&lt;br&gt;Fight ending with character’s death / Walka zakończona śmiercią uczestnika; (&lt;b&gt;Ghoul&lt;/b&gt;, Geralt)&lt;/font&gt;&lt;br&gt;&lt;/font&gt;&lt;/span&gt;&lt;/span&gt;" style="rounded=0;whiteSpace=wrap;html=1;align=center;fillColor=#d5e8d4;strokeColor=#82b366;" vertex="1" parent="1">
          <mxGeometry x="-210" y="542.48" width="260" height="70" as="geometry" />
        </mxCell>
        <mxCell id="b_2GoEoPAxL19k0eejS7-1" value="" style="ellipse;whiteSpace=wrap;html=1;aspect=fixed;fontSize=14;align=center;fillColor=#000000;" vertex="1" parent="1">
          <mxGeometry x="-360" y="620" width="40" height="40" as="geometry" />
        </mxCell>
        <mxCell id="FekDQM8jbrZTuftXHcIN-14" value="" style="endArrow=classic;html=1;rounded=0;entryX=0.5;entryY=0;entryDx=0;entryDy=0;exitX=0.5;exitY=1;exitDx=0;exitDy=0;fillColor=#d5e8d4;strokeColor=#82b366;strokeWidth=3;" edge="1" parent="1" source="FekDQM8jbrZTuftXHcIN-11" target="nWbS8f2qcYJRGoIMHePj-5">
          <mxGeometry width="50" height="50" relative="1" as="geometry">
            <mxPoint x="-190" y="802.48" as="sourcePoint" />
            <mxPoint x="-80" y="662.48" as="targetPoint" />
          </mxGeometry>
        </mxCell>
        <mxCell id="x6JtXPcbMbZOkAOCYJe6-6" value="Transfer of knowledge in conversation / Rozmowa z przekazaniem informacji; (Vizima cemetery, Vetala,True_Kidnappers&lt;span style=&quot;background-color: initial;&quot;&gt;, Geralt)&lt;/span&gt;" style="rounded=0;whiteSpace=wrap;html=1;align=center;fillColor=#d5e8d4;strokeColor=#82b366;" vertex="1" parent="1">
          <mxGeometry x="-210" y="1030.02" width="260" height="79.98" as="geometry" />
        </mxCell>
        <mxCell id="x6JtXPcbMbZOkAOCYJe6-8" value="" style="endArrow=classic;html=1;rounded=0;entryX=0.5;entryY=0;entryDx=0;entryDy=0;exitX=0.5;exitY=1;exitDx=0;exitDy=0;" edge="1" parent="1" source="bjW2cNjtbmRTyIGhvJUG-101" target="x6JtXPcbMbZOkAOCYJe6-6">
          <mxGeometry width="50" height="50" relative="1" as="geometry">
            <mxPoint x="-81" y="990" as="sourcePoint" />
            <mxPoint x="-81" y="1150" as="targetPoint" />
          </mxGeometry>
        </mxCell>
        <mxCell id="FekDQM8jbrZTuftXHcIN-16" value="" style="endArrow=classic;html=1;rounded=0;entryX=0.5;entryY=0;entryDx=0;entryDy=0;exitX=0.5;exitY=1;exitDx=0;exitDy=0;" edge="1" parent="1" source="e680JuOgOBd_JA680aSm-2" target="FekDQM8jbrZTuftXHcIN-17">
          <mxGeometry width="50" height="50" relative="1" as="geometry">
            <mxPoint x="-81" y="1392.54" as="sourcePoint" />
            <mxPoint x="-81" y="1292.54" as="targetPoint" />
          </mxGeometry>
        </mxCell>
        <mxCell id="nWbS8f2qcYJRGoIMHePj-10" style="edgeStyle=orthogonalEdgeStyle;rounded=0;orthogonalLoop=1;jettySize=auto;html=1;exitX=0.5;exitY=1;exitDx=0;exitDy=0;entryX=0.5;entryY=0;entryDx=0;entryDy=0;" edge="1" parent="1" source="FekDQM8jbrZTuftXHcIN-17" target="bjW2cNjtbmRTyIGhvJUG-99">
          <mxGeometry relative="1" as="geometry" />
        </mxCell>
        <mxCell id="FekDQM8jbrZTuftXHcIN-17" value="Transfer of knowledge in conversation / Rozmowa z przekazaniem informacji; (Cemetery crypt, Scoia_tael, No_time_for_both, Geralt)" style="rounded=0;whiteSpace=wrap;html=1;align=center;fillColor=#d5e8d4;strokeColor=#82b366;" vertex="1" parent="1">
          <mxGeometry x="-209" y="1230" width="260" height="80" as="geometry" />
        </mxCell>
        <mxCell id="bjW2cNjtbmRTyIGhvJUG-6" value="" style="edgeStyle=orthogonalEdgeStyle;rounded=0;orthogonalLoop=1;jettySize=auto;html=1;exitX=0.5;exitY=1;exitDx=0;exitDy=0;entryX=0.5;entryY=0;entryDx=0;entryDy=0;" edge="1" parent="1" source="e680JuOgOBd_JA680aSm-10" target="e680JuOgOBd_JA680aSm-8">
          <mxGeometry relative="1" as="geometry">
            <mxPoint x="-490" y="1240" as="sourcePoint" />
            <mxPoint x="-490" y="1290" as="targetPoint" />
          </mxGeometry>
        </mxCell>
        <mxCell id="bjW2cNjtbmRTyIGhvJUG-25" value="" style="ellipse;whiteSpace=wrap;html=1;aspect=fixed;fontSize=14;align=center;fillColor=#fff2cc;strokeWidth=1;strokeColor=#d6b656;" vertex="1" parent="1">
          <mxGeometry x="-510" y="1380" width="40" height="40" as="geometry" />
        </mxCell>
        <mxCell id="bjW2cNjtbmRTyIGhvJUG-26" value="" style="edgeStyle=orthogonalEdgeStyle;rounded=0;orthogonalLoop=1;jettySize=auto;html=1;exitX=0.5;exitY=1;exitDx=0;exitDy=0;entryX=0.5;entryY=0;entryDx=0;entryDy=0;" edge="1" parent="1" source="e680JuOgOBd_JA680aSm-8" target="bjW2cNjtbmRTyIGhvJUG-67">
          <mxGeometry relative="1" as="geometry">
            <mxPoint x="-480" y="1155" as="sourcePoint" />
            <mxPoint x="-490" y="1320" as="targetPoint" />
          </mxGeometry>
        </mxCell>
        <mxCell id="bjW2cNjtbmRTyIGhvJUG-42" value="Fight ending with Scoia_tael death / Walka zakończona śmiercią Scoia_tael.; (Cemetery crypt, Scoia_tael, Geralt, Innocents)" style="rounded=0;whiteSpace=wrap;html=1;align=center;" vertex="1" parent="1">
          <mxGeometry x="340" y="1450" width="260" height="60" as="geometry" />
        </mxCell>
        <mxCell id="bjW2cNjtbmRTyIGhvJUG-43" style="edgeStyle=orthogonalEdgeStyle;rounded=0;orthogonalLoop=1;jettySize=auto;html=1;exitX=1;exitY=0.5;exitDx=0;exitDy=0;" edge="1" parent="1" source="bjW2cNjtbmRTyIGhvJUG-42" target="bjW2cNjtbmRTyIGhvJUG-44">
          <mxGeometry relative="1" as="geometry">
            <mxPoint x="340" y="1530.04" as="sourcePoint" />
            <Array as="points">
              <mxPoint x="680" y="1480" />
            </Array>
            <mxPoint x="680" y="1520.02" as="targetPoint" />
          </mxGeometry>
        </mxCell>
        <mxCell id="bjW2cNjtbmRTyIGhvJUG-44" value="" style="ellipse;whiteSpace=wrap;html=1;aspect=fixed;fontSize=14;align=center;fillColor=#000000;" vertex="1" parent="1">
          <mxGeometry x="660" y="1520" width="40" height="40" as="geometry" />
        </mxCell>
        <mxCell id="bjW2cNjtbmRTyIGhvJUG-52" value="" style="ellipse;whiteSpace=wrap;html=1;aspect=fixed;fontSize=14;align=center;fillColor=#fff2cc;strokeWidth=1;strokeColor=#d6b656;" vertex="1" parent="1">
          <mxGeometry x="450" y="1750" width="40" height="40" as="geometry" />
        </mxCell>
        <mxCell id="bjW2cNjtbmRTyIGhvJUG-53" value="" style="edgeStyle=orthogonalEdgeStyle;rounded=0;orthogonalLoop=1;jettySize=auto;html=1;exitX=0.5;exitY=1;exitDx=0;exitDy=0;entryX=0.5;entryY=0;entryDx=0;entryDy=0;" edge="1" parent="1" source="bjW2cNjtbmRTyIGhvJUG-62" target="bjW2cNjtbmRTyIGhvJUG-52">
          <mxGeometry relative="1" as="geometry">
            <mxPoint x="470" y="1714.98" as="sourcePoint" />
            <mxPoint x="469.9999999999998" y="1742.5" as="targetPoint" />
          </mxGeometry>
        </mxCell>
        <mxCell id="bjW2cNjtbmRTyIGhvJUG-56" style="edgeStyle=orthogonalEdgeStyle;rounded=0;orthogonalLoop=1;jettySize=auto;html=1;" edge="1" parent="1">
          <mxGeometry relative="1" as="geometry">
            <mxPoint x="520" y="1059.9565217391305" as="sourcePoint" />
            <Array as="points">
              <mxPoint x="640" y="1060" />
            </Array>
          </mxGeometry>
        </mxCell>
        <mxCell id="bjW2cNjtbmRTyIGhvJUG-63" style="edgeStyle=orthogonalEdgeStyle;rounded=0;orthogonalLoop=1;jettySize=auto;html=1;exitX=0.5;exitY=1;exitDx=0;exitDy=0;entryX=0.5;entryY=0;entryDx=0;entryDy=0;" edge="1" parent="1" source="e680JuOgOBd_JA680aSm-4" target="bjW2cNjtbmRTyIGhvJUG-62">
          <mxGeometry relative="1" as="geometry" />
        </mxCell>
        <mxCell id="bjW2cNjtbmRTyIGhvJUG-62" value="Mission ends with murderers killed / Misja się kończy z zabicie zabojcy&lt;span&gt;&lt;span dir=&quot;ltr&quot; class=&quot;ui-provider ef ayi ayj ayk ayl aym ayn ayo ayp ayq ayr ays ayt ayu ayv ayw ayx ayy ayz aza azb azc azd aze azf azg azh azi azj azk azl azm azn azo azp&quot;&gt;; &lt;/span&gt;&lt;/span&gt;(Cloister, Geralt, Kidnappers_dead&lt;span style=&quot;background-color: initial;&quot;&gt;, Siegfried)&lt;/span&gt;" style="rounded=0;whiteSpace=wrap;html=1;" vertex="1" parent="1">
          <mxGeometry x="340" y="1617.5" width="260" height="80" as="geometry" />
        </mxCell>
        <mxCell id="bjW2cNjtbmRTyIGhvJUG-68" style="edgeStyle=orthogonalEdgeStyle;rounded=0;orthogonalLoop=1;jettySize=auto;html=1;exitX=0.5;exitY=1;exitDx=0;exitDy=0;" edge="1" parent="1" source="bjW2cNjtbmRTyIGhvJUG-67" target="bjW2cNjtbmRTyIGhvJUG-25">
          <mxGeometry relative="1" as="geometry">
            <mxPoint x="-490" y="1507.52" as="targetPoint" />
          </mxGeometry>
        </mxCell>
        <mxCell id="bjW2cNjtbmRTyIGhvJUG-67" value="Mission ends with Vetala dead / Misja się kończy z Vetala martwy; (Cloister, Geralt, Sentient_ghoul&lt;span style=&quot;background-color: initial;&quot;&gt;, Siegfried)&lt;/span&gt;" style="rounded=0;whiteSpace=wrap;html=1;" vertex="1" parent="1">
          <mxGeometry x="-620" y="1260" width="260" height="80" as="geometry" />
        </mxCell>
        <mxCell id="bjW2cNjtbmRTyIGhvJUG-75" value="" style="endArrow=classic;html=1;rounded=0;exitX=0.5;exitY=1;exitDx=0;exitDy=0;entryX=0.5;entryY=0;entryDx=0;entryDy=0;fillColor=#d5e8d4;strokeColor=#82b366;strokeWidth=3;" edge="1" parent="1" source="bjW2cNjtbmRTyIGhvJUG-77" target="bjW2cNjtbmRTyIGhvJUG-82">
          <mxGeometry width="50" height="50" relative="1" as="geometry">
            <mxPoint x="-81" y="1570" as="sourcePoint" />
            <mxPoint x="-81" y="1642.5" as="targetPoint" />
          </mxGeometry>
        </mxCell>
        <mxCell id="bjW2cNjtbmRTyIGhvJUG-76" style="edgeStyle=orthogonalEdgeStyle;rounded=0;orthogonalLoop=1;jettySize=auto;html=1;exitX=1;exitY=0.5;exitDx=0;exitDy=0;" edge="1" parent="1" source="bjW2cNjtbmRTyIGhvJUG-77" target="bjW2cNjtbmRTyIGhvJUG-78">
          <mxGeometry relative="1" as="geometry">
            <mxPoint x="120" y="1585.0250156445618" as="targetPoint" />
            <Array as="points">
              <mxPoint x="120" y="1555.48" />
            </Array>
          </mxGeometry>
        </mxCell>
        <mxCell id="bjW2cNjtbmRTyIGhvJUG-77" value="Fight ending with character’s death / Walka zakończona śmiercią uczestnika; (&lt;b style=&quot;border-color: var(--border-color); color: rgb(0, 0, 0);&quot;&gt;Ghoul&lt;/b&gt;&lt;span style=&quot;color: rgb(0, 0, 0);&quot;&gt;, Geralt)&lt;/span&gt;" style="rounded=0;whiteSpace=wrap;html=1;align=center;fillColor=#d5e8d4;strokeColor=#82b366;" vertex="1" parent="1">
          <mxGeometry x="-209" y="1532.5" width="260" height="60" as="geometry" />
        </mxCell>
        <mxCell id="bjW2cNjtbmRTyIGhvJUG-78" value="" style="ellipse;whiteSpace=wrap;html=1;aspect=fixed;fontSize=14;align=center;fillColor=#000000;" vertex="1" parent="1">
          <mxGeometry x="101" y="1585" width="40" height="40" as="geometry" />
        </mxCell>
        <mxCell id="bjW2cNjtbmRTyIGhvJUG-81" style="edgeStyle=orthogonalEdgeStyle;rounded=0;orthogonalLoop=1;jettySize=auto;html=1;exitX=1;exitY=0.5;exitDx=0;exitDy=0;" edge="1" parent="1" source="bjW2cNjtbmRTyIGhvJUG-82" target="bjW2cNjtbmRTyIGhvJUG-83">
          <mxGeometry relative="1" as="geometry">
            <mxPoint x="120" y="1710.0250156445618" as="targetPoint" />
            <Array as="points">
              <mxPoint x="120" y="1680.48" />
            </Array>
          </mxGeometry>
        </mxCell>
        <mxCell id="bjW2cNjtbmRTyIGhvJUG-82" value="Fight ending with character’s death / Walka zakończona śmiercią uczestnika; (&lt;b style=&quot;border-color: var(--border-color); color: rgb(0, 0, 0);&quot;&gt;Necrophage&lt;/b&gt;&lt;span style=&quot;color: rgb(0, 0, 0);&quot;&gt;, Geralt)&lt;/span&gt;" style="rounded=0;whiteSpace=wrap;html=1;align=center;fillColor=#d5e8d4;strokeColor=#82b366;" vertex="1" parent="1">
          <mxGeometry x="-209" y="1657.5" width="260" height="60" as="geometry" />
        </mxCell>
        <mxCell id="bjW2cNjtbmRTyIGhvJUG-83" value="" style="ellipse;whiteSpace=wrap;html=1;aspect=fixed;fontSize=14;align=center;fillColor=#000000;" vertex="1" parent="1">
          <mxGeometry x="101" y="1710" width="40" height="40" as="geometry" />
        </mxCell>
        <mxCell id="bjW2cNjtbmRTyIGhvJUG-89" value="Player's decision" style="ellipse;whiteSpace=wrap;html=1;aspect=fixed;fontSize=12;align=center;fillColor=#d5e8d4;fontColor=#000000;" vertex="1" parent="1">
          <mxGeometry x="-104.0" y="2010" width="50" height="50" as="geometry" />
        </mxCell>
        <mxCell id="bjW2cNjtbmRTyIGhvJUG-90" value="" style="edgeStyle=orthogonalEdgeStyle;rounded=0;orthogonalLoop=1;jettySize=auto;html=1;exitX=0.5;exitY=1;exitDx=0;exitDy=0;fillColor=#d5e8d4;strokeColor=#82b366;strokeWidth=3;" edge="1" parent="1" source="bjW2cNjtbmRTyIGhvJUG-93" target="bjW2cNjtbmRTyIGhvJUG-89">
          <mxGeometry relative="1" as="geometry">
            <mxPoint x="-81" y="1970.02" as="sourcePoint" />
            <mxPoint x="-79" y="1960.02" as="targetPoint" />
          </mxGeometry>
        </mxCell>
        <mxCell id="bjW2cNjtbmRTyIGhvJUG-91" style="edgeStyle=orthogonalEdgeStyle;rounded=0;orthogonalLoop=1;jettySize=auto;html=1;exitX=0.5;exitY=1;exitDx=0;exitDy=0;entryX=0.5;entryY=0;entryDx=0;entryDy=0;fillColor=#d5e8d4;strokeColor=#82b366;strokeWidth=3;" edge="1" parent="1" source="e680JuOgOBd_JA680aSm-6" target="bjW2cNjtbmRTyIGhvJUG-93">
          <mxGeometry relative="1" as="geometry" />
        </mxCell>
        <mxCell id="bjW2cNjtbmRTyIGhvJUG-93" value="Mission ends with innocents saved / Misja się kończy z ocalanie Innocents; (Cloister, Geralt, Innocents_saved, Siegfried)" style="rounded=0;whiteSpace=wrap;html=1;fillColor=#d5e8d4;strokeColor=#82b366;" vertex="1" parent="1">
          <mxGeometry x="-209" y="1845.04" width="260" height="80" as="geometry" />
        </mxCell>
        <mxCell id="bjW2cNjtbmRTyIGhvJUG-98" value="" style="edgeStyle=orthogonalEdgeStyle;rounded=0;orthogonalLoop=1;jettySize=auto;html=1;exitX=0.5;exitY=1;exitDx=0;exitDy=0;entryX=0.5;entryY=0;entryDx=0;entryDy=0;" edge="1" parent="1" source="FekDQM8jbrZTuftXHcIN-17" target="bjW2cNjtbmRTyIGhvJUG-97">
          <mxGeometry relative="1" as="geometry">
            <mxPoint x="-81" y="1322.54" as="sourcePoint" />
            <mxPoint x="-81" y="1545.54" as="targetPoint" />
          </mxGeometry>
        </mxCell>
        <mxCell id="nWbS8f2qcYJRGoIMHePj-24" style="edgeStyle=orthogonalEdgeStyle;rounded=0;orthogonalLoop=1;jettySize=auto;html=1;exitX=0.5;exitY=1;exitDx=0;exitDy=0;entryX=0.5;entryY=0;entryDx=0;entryDy=0;" edge="1" parent="1" source="bjW2cNjtbmRTyIGhvJUG-97" target="nWbS8f2qcYJRGoIMHePj-22">
          <mxGeometry relative="1" as="geometry" />
        </mxCell>
        <mxCell id="bjW2cNjtbmRTyIGhvJUG-97" value="Go Save the innocents" style="rounded=0;whiteSpace=wrap;html=1;align=center;fillColor=#ffe6cc;strokeColor=#d79b00;" vertex="1" parent="1">
          <mxGeometry x="-209" y="1372.52" width="260" height="40" as="geometry" />
        </mxCell>
        <mxCell id="bjW2cNjtbmRTyIGhvJUG-100" style="edgeStyle=orthogonalEdgeStyle;rounded=0;orthogonalLoop=1;jettySize=auto;html=1;exitX=0.5;exitY=1;exitDx=0;exitDy=0;entryX=0.5;entryY=0;entryDx=0;entryDy=0;" edge="1" parent="1" source="bjW2cNjtbmRTyIGhvJUG-99" target="bjW2cNjtbmRTyIGhvJUG-42">
          <mxGeometry relative="1" as="geometry" />
        </mxCell>
        <mxCell id="bjW2cNjtbmRTyIGhvJUG-99" value="Kill the murderers" style="rounded=0;whiteSpace=wrap;html=1;align=center;fillColor=#ffe6cc;strokeColor=#d79b00;" vertex="1" parent="1">
          <mxGeometry x="340" y="1372.52" width="260" height="40" as="geometry" />
        </mxCell>
        <mxCell id="bjW2cNjtbmRTyIGhvJUG-101" value="Spare Vetala" style="rounded=0;whiteSpace=wrap;html=1;align=center;fillColor=#ffe6cc;strokeColor=#d79b00;" vertex="1" parent="1">
          <mxGeometry x="-210" y="950" width="260" height="40" as="geometry" />
        </mxCell>
        <mxCell id="bjW2cNjtbmRTyIGhvJUG-103" value="Kill Vetala" style="rounded=0;whiteSpace=wrap;html=1;align=center;fillColor=#ffe6cc;strokeColor=#d79b00;" vertex="1" parent="1">
          <mxGeometry x="-620" y="950" width="260" height="40" as="geometry" />
        </mxCell>
        <mxCell id="e680JuOgOBd_JA680aSm-3" value="" style="endArrow=classic;html=1;rounded=0;entryX=0.5;entryY=0;entryDx=0;entryDy=0;exitX=0.5;exitY=1;exitDx=0;exitDy=0;" edge="1" parent="1" source="x6JtXPcbMbZOkAOCYJe6-6" target="e680JuOgOBd_JA680aSm-2">
          <mxGeometry width="50" height="50" relative="1" as="geometry">
            <mxPoint x="-81" y="1090" as="sourcePoint" />
            <mxPoint x="-81" y="1263" as="targetPoint" />
          </mxGeometry>
        </mxCell>
        <mxCell id="e680JuOgOBd_JA680aSm-2" value="&lt;span id=&quot;docs-internal-guid-4cfbbf0f-7fff-1ddc-6e00-4f36d3d0db7e&quot;&gt;&lt;span style=&quot;background-color: transparent ; vertical-align: baseline&quot;&gt;&lt;font&gt;&lt;font style=&quot;font-size: 12px;&quot;&gt;Location change / Zmiana lokacji; (Geralt, Cemetery Crypt&lt;/font&gt;&lt;/font&gt;&lt;/span&gt;&lt;/span&gt;)&lt;span id=&quot;docs-internal-guid-4cfbbf0f-7fff-1ddc-6e00-4f36d3d0db7e&quot;&gt;&lt;/span&gt;" style="rounded=0;whiteSpace=wrap;html=1;align=center;" vertex="1" parent="1">
          <mxGeometry x="-210" y="1150" width="260" height="40" as="geometry" />
        </mxCell>
        <mxCell id="e680JuOgOBd_JA680aSm-5" value="" style="edgeStyle=orthogonalEdgeStyle;rounded=0;orthogonalLoop=1;jettySize=auto;html=1;exitX=0.5;exitY=1;exitDx=0;exitDy=0;entryX=0.5;entryY=0;entryDx=0;entryDy=0;" edge="1" parent="1" source="bjW2cNjtbmRTyIGhvJUG-42" target="e680JuOgOBd_JA680aSm-4">
          <mxGeometry relative="1" as="geometry">
            <mxPoint x="470" y="1587.52" as="sourcePoint" />
            <mxPoint x="470" y="1700" as="targetPoint" />
          </mxGeometry>
        </mxCell>
        <mxCell id="e680JuOgOBd_JA680aSm-4" value="&lt;span id=&quot;docs-internal-guid-4cfbbf0f-7fff-1ddc-6e00-4f36d3d0db7e&quot;&gt;&lt;span style=&quot;background-color: transparent ; vertical-align: baseline&quot;&gt;&lt;font&gt;&lt;font style=&quot;font-size: 12px;&quot;&gt;Location change / Zmiana lokacji; (Geralt, Cloister&lt;/font&gt;&lt;/font&gt;&lt;/span&gt;&lt;/span&gt;)&lt;span id=&quot;docs-internal-guid-4cfbbf0f-7fff-1ddc-6e00-4f36d3d0db7e&quot;&gt;&lt;/span&gt;" style="rounded=0;whiteSpace=wrap;html=1;align=center;" vertex="1" parent="1">
          <mxGeometry x="340" y="1540" width="260" height="40" as="geometry" />
        </mxCell>
        <mxCell id="e680JuOgOBd_JA680aSm-7" value="" style="edgeStyle=orthogonalEdgeStyle;rounded=0;orthogonalLoop=1;jettySize=auto;html=1;exitX=0.5;exitY=1;exitDx=0;exitDy=0;entryX=0.5;entryY=0;entryDx=0;entryDy=0;fillColor=#d5e8d4;strokeColor=#82b366;strokeWidth=3;" edge="1" parent="1" source="bjW2cNjtbmRTyIGhvJUG-82" target="e680JuOgOBd_JA680aSm-6">
          <mxGeometry relative="1" as="geometry">
            <mxPoint x="-79" y="1730.02" as="sourcePoint" />
            <mxPoint x="-80" y="1890.02" as="targetPoint" />
          </mxGeometry>
        </mxCell>
        <mxCell id="e680JuOgOBd_JA680aSm-6" value="&lt;span id=&quot;docs-internal-guid-4cfbbf0f-7fff-1ddc-6e00-4f36d3d0db7e&quot;&gt;&lt;span style=&quot;background-color: transparent ; vertical-align: baseline&quot;&gt;&lt;font&gt;&lt;font style=&quot;font-size: 12px;&quot;&gt;Location change / Zmiana lokacji; (Geralt, Cloister&lt;/font&gt;&lt;/font&gt;&lt;/span&gt;&lt;/span&gt;)&lt;span id=&quot;docs-internal-guid-4cfbbf0f-7fff-1ddc-6e00-4f36d3d0db7e&quot;&gt;&lt;/span&gt;" style="rounded=0;whiteSpace=wrap;html=1;align=center;fillColor=#d5e8d4;strokeColor=#82b366;" vertex="1" parent="1">
          <mxGeometry x="-209" y="1770" width="260" height="40" as="geometry" />
        </mxCell>
        <mxCell id="e680JuOgOBd_JA680aSm-8" value="&lt;span id=&quot;docs-internal-guid-4cfbbf0f-7fff-1ddc-6e00-4f36d3d0db7e&quot;&gt;&lt;span style=&quot;background-color: transparent ; vertical-align: baseline&quot;&gt;&lt;font&gt;&lt;font style=&quot;font-size: 12px;&quot;&gt;Location change / Zmiana lokacji; (Geralt, Cloister&lt;/font&gt;&lt;/font&gt;&lt;/span&gt;&lt;/span&gt;)&lt;span id=&quot;docs-internal-guid-4cfbbf0f-7fff-1ddc-6e00-4f36d3d0db7e&quot;&gt;&lt;/span&gt;" style="rounded=0;whiteSpace=wrap;html=1;align=center;" vertex="1" parent="1">
          <mxGeometry x="-620" y="1170" width="260" height="40" as="geometry" />
        </mxCell>
        <mxCell id="e680JuOgOBd_JA680aSm-11" style="edgeStyle=orthogonalEdgeStyle;rounded=0;orthogonalLoop=1;jettySize=auto;html=1;" edge="1" parent="1" source="e680JuOgOBd_JA680aSm-10" target="e680JuOgOBd_JA680aSm-12">
          <mxGeometry relative="1" as="geometry">
            <mxPoint x="-620" y="1070.0038095238097" as="sourcePoint" />
            <Array as="points">
              <mxPoint x="-730" y="1070" />
            </Array>
          </mxGeometry>
        </mxCell>
        <mxCell id="e680JuOgOBd_JA680aSm-12" value="" style="ellipse;whiteSpace=wrap;html=1;aspect=fixed;fontSize=14;align=center;fillColor=#000000;" vertex="1" parent="1">
          <mxGeometry x="-750" y="1120" width="40" height="40" as="geometry" />
        </mxCell>
        <mxCell id="e680JuOgOBd_JA680aSm-13" value="" style="edgeStyle=orthogonalEdgeStyle;rounded=0;orthogonalLoop=1;jettySize=auto;html=1;exitX=0.5;exitY=1;exitDx=0;exitDy=0;entryX=0.5;entryY=0;entryDx=0;entryDy=0;" edge="1" parent="1" source="bjW2cNjtbmRTyIGhvJUG-103" target="e680JuOgOBd_JA680aSm-10">
          <mxGeometry relative="1" as="geometry">
            <mxPoint x="-490" y="1180" as="targetPoint" />
            <mxPoint x="-490" y="990" as="sourcePoint" />
            <Array as="points" />
          </mxGeometry>
        </mxCell>
        <mxCell id="e680JuOgOBd_JA680aSm-10" value="Fight ending with Vetala death / Walka zakończona śmiercią Vetala.; (Vizima cemetery, Vetala, Geralt)" style="rounded=0;whiteSpace=wrap;html=1;align=center;" vertex="1" parent="1">
          <mxGeometry x="-620" y="1050" width="260" height="60" as="geometry" />
        </mxCell>
        <mxCell id="nWbS8f2qcYJRGoIMHePj-15" style="edgeStyle=orthogonalEdgeStyle;rounded=0;orthogonalLoop=1;jettySize=auto;html=1;exitX=0.5;exitY=1;exitDx=0;exitDy=0;fillColor=#d5e8d4;strokeColor=#82b366;strokeWidth=3;" edge="1" parent="1" source="nWbS8f2qcYJRGoIMHePj-5" target="nWbS8f2qcYJRGoIMHePj-12">
          <mxGeometry relative="1" as="geometry" />
        </mxCell>
        <mxCell id="nWbS8f2qcYJRGoIMHePj-5" value="&lt;span style=&quot;color: rgb(51, 51, 51); font-family: Helvetica; font-size: 12px; font-style: normal; font-variant-ligatures: normal; font-variant-caps: normal; font-weight: 400; letter-spacing: normal; orphans: 2; text-indent: 0px; text-transform: none; widows: 2; word-spacing: 0px; -webkit-text-stroke-width: 0px; background-color: rgb(251, 251, 251); text-decoration-thickness: initial; text-decoration-style: initial; text-decoration-color: initial; float: none; display: inline !important;&quot;&gt;Fight ending with character’s death / Walka zakończona śmiercią uczestnika; (&lt;/span&gt;&lt;span style=&quot;color: rgb(51, 51, 51); font-family: Helvetica; font-size: 12px; font-style: normal; font-variant-ligatures: normal; font-variant-caps: normal; letter-spacing: normal; orphans: 2; text-indent: 0px; text-transform: none; widows: 2; word-spacing: 0px; -webkit-text-stroke-width: 0px; background-color: rgb(251, 251, 251); text-decoration-thickness: initial; text-decoration-style: initial; text-decoration-color: initial; float: none; display: inline !important;&quot;&gt;&lt;b&gt;N&lt;/b&gt;&lt;/span&gt;&lt;span style=&quot;border-color: var(--border-color); font-family: Helvetica; font-size: 12px; font-style: normal; font-variant-ligatures: normal; font-variant-caps: normal; letter-spacing: normal; orphans: 2; text-indent: 0px; text-transform: none; widows: 2; word-spacing: 0px; -webkit-text-stroke-width: 0px; background-color: rgb(251, 251, 251); text-decoration-thickness: initial; text-decoration-style: initial; text-decoration-color: initial; color: rgb(0, 0, 0);&quot;&gt;&lt;b&gt;ecrophage &lt;/b&gt;&lt;/span&gt;&lt;span style=&quot;border-color: var(--border-color); font-family: Helvetica; font-size: 12px; font-style: normal; font-variant-ligatures: normal; font-variant-caps: normal; font-weight: 400; letter-spacing: normal; orphans: 2; text-indent: 0px; text-transform: none; widows: 2; word-spacing: 0px; -webkit-text-stroke-width: 0px; background-color: rgb(251, 251, 251); text-decoration-thickness: initial; text-decoration-style: initial; text-decoration-color: initial; color: rgb(0, 0, 0);&quot;&gt;, Geralt)&lt;/span&gt;" style="whiteSpace=wrap;html=1;rounded=0;align=center;verticalAlign=middle;fillColor=#d5e8d4;strokeColor=#82b366;" vertex="1" parent="1">
          <mxGeometry x="-210" y="700" width="260" height="60" as="geometry" />
        </mxCell>
        <mxCell id="nWbS8f2qcYJRGoIMHePj-6" style="edgeStyle=orthogonalEdgeStyle;rounded=0;orthogonalLoop=1;jettySize=auto;html=1;exitX=0;exitY=0.5;exitDx=0;exitDy=0;" edge="1" parent="1" source="nWbS8f2qcYJRGoIMHePj-5" target="nWbS8f2qcYJRGoIMHePj-7">
          <mxGeometry relative="1" as="geometry">
            <mxPoint x="-221" y="810" as="sourcePoint" />
            <Array as="points">
              <mxPoint x="-340" y="730" />
            </Array>
          </mxGeometry>
        </mxCell>
        <mxCell id="nWbS8f2qcYJRGoIMHePj-7" value="" style="ellipse;whiteSpace=wrap;html=1;aspect=fixed;fontSize=14;align=center;fillColor=#000000;" vertex="1" parent="1">
          <mxGeometry x="-360" y="780" width="40" height="40" as="geometry" />
        </mxCell>
        <mxCell id="nWbS8f2qcYJRGoIMHePj-16" style="edgeStyle=orthogonalEdgeStyle;rounded=0;orthogonalLoop=1;jettySize=auto;html=1;exitX=0.5;exitY=1;exitDx=0;exitDy=0;" edge="1" parent="1" source="nWbS8f2qcYJRGoIMHePj-12" target="bjW2cNjtbmRTyIGhvJUG-101">
          <mxGeometry relative="1" as="geometry" />
        </mxCell>
        <mxCell id="nWbS8f2qcYJRGoIMHePj-17" style="edgeStyle=orthogonalEdgeStyle;rounded=0;orthogonalLoop=1;jettySize=auto;html=1;exitX=0.5;exitY=1;exitDx=0;exitDy=0;entryX=0.5;entryY=0;entryDx=0;entryDy=0;" edge="1" parent="1" source="nWbS8f2qcYJRGoIMHePj-12" target="bjW2cNjtbmRTyIGhvJUG-103">
          <mxGeometry relative="1" as="geometry" />
        </mxCell>
        <mxCell id="nWbS8f2qcYJRGoIMHePj-12" value="Knowledge creation about Vetala / Utworzenie wiedzy fabularnej o Vetala; (Vizima cemetery, Geralt, Vetala)" style="rounded=0;whiteSpace=wrap;html=1;fillColor=#d5e8d4;strokeColor=#82b366;" vertex="1" parent="1">
          <mxGeometry x="-210" y="820" width="260" height="60" as="geometry" />
        </mxCell>
        <mxCell id="nWbS8f2qcYJRGoIMHePj-25" style="edgeStyle=orthogonalEdgeStyle;rounded=0;orthogonalLoop=1;jettySize=auto;html=1;exitX=0.5;exitY=1;exitDx=0;exitDy=0;entryX=0.5;entryY=0;entryDx=0;entryDy=0;fillColor=#d5e8d4;strokeColor=#82b366;strokeWidth=3;" edge="1" parent="1" source="nWbS8f2qcYJRGoIMHePj-22" target="bjW2cNjtbmRTyIGhvJUG-77">
          <mxGeometry relative="1" as="geometry" />
        </mxCell>
        <mxCell id="nWbS8f2qcYJRGoIMHePj-22" value="&lt;span id=&quot;docs-internal-guid-4cfbbf0f-7fff-1ddc-6e00-4f36d3d0db7e&quot;&gt;&lt;span style=&quot;background-color: transparent ; vertical-align: baseline&quot;&gt;&lt;font&gt;Save Innocents / Ocalicz Innocents.; (Cemetery crypt, Geralt, Innocents, Scoia_tael, Swamp)&lt;br&gt;&lt;/font&gt;&lt;/span&gt;&lt;/span&gt;" style="rounded=0;whiteSpace=wrap;html=1;align=center;fillColor=#d5e8d4;strokeColor=#82b366;" vertex="1" parent="1">
          <mxGeometry x="-209" y="1450" width="260" height="40" as="geometry" />
        </mxCell>
      <mxCell id="afb1fc89-8a63-4d5d-a6fd-a9151f534e84" value="Location change / Zmiana lokacji; (Geralt, Vizima cemetery)" style="rounded=0;whiteSpace=wrap;html=1;strokeColor=#6c8ebf;align=center;fontSize=14;fontFamily=Helvetica;fillColor=#dae8fc;strokeColor=#006EAF;" parent="1" vertex="1"><mxGeometry x="-920" y="252" width="260" height="60" as="geometry" /></mxCell><mxCell id="1a90c4eb-a273-4025-86cb-f5e4c05b643f" style="edgeStyle=orthogonalEdgeStyle;rounded=0;orthogonalLoop=1;jettySize=auto;html=1;exitX=0;exitY=0.8;exitDx=0;exitDy=0;entryX=0.5;entryY=0;entryDx=0;entryDy=0;fillColor=#dae8fc;strokeColor=#006EAF;strokeWidth=3;" source="x6JtXPcbMbZOkAOCYJe6-3" target="afb1fc89-8a63-4d5d-a6fd-a9151f534e84" parent="1" edge="1"><mxGeometry relative="1" as="geometry" /></mxCell><mxCell id="a38bca8c-f031-41aa-9183-fd01e913f03b" style="edgeStyle=orthogonalEdgeStyle;rounded=0;orthogonalLoop=1;jettySize=auto;html=1;exitX=1;exitY=0.5;exitDx=0;exitDy=0;entryX=0;entryY=0.2;entryDx=0;entryDy=0;fillColor=#dae8fc;strokeColor=#006EAF;strokeWidth=3;" source="afb1fc89-8a63-4d5d-a6fd-a9151f534e84" target="igLQ1kcN2VaOKkPszlF--9" parent="1" edge="1"><mxGeometry relative="1" as="geometry" /></mxCell><mxCell id="9dbe1784-5005-4fb5-8701-b7214fa729cf" style="edgeStyle=orthogonalEdgeStyle;rounded=0;orthogonalLoop=1;jettySize=auto;html=1;exitX=0;exitY=0.8;exitDx=0;exitDy=0;entryX=0.5;entryY=0;entryDx=0;entryDy=0;fillColor=#dae8fc;strokeColor=#006EAF;strokeWidth=3;" source="nWbS8f2qcYJRGoIMHePj-12" target="x6JtXPcbMbZOkAOCYJe6-6" parent="1" edge="1"><mxGeometry relative="1" as="geometry" /></mxCell><mxCell id="dc6b7143-8754-4fea-bd93-5df7fdc93a3d" value="Location change / Zmiana lokacji; (Geralt, Cemetery crypt)" style="rounded=0;whiteSpace=wrap;html=1;strokeColor=#6c8ebf;align=center;fontSize=14;fontFamily=Helvetica;fillColor=#dae8fc;strokeColor=#006EAF;" parent="1" vertex="1"><mxGeometry x="-1220" y="1110" width="260" height="60" as="geometry" /></mxCell><mxCell id="bdf2c482-a924-416a-950d-35aadc784181" style="edgeStyle=orthogonalEdgeStyle;rounded=0;orthogonalLoop=1;jettySize=auto;html=1;exitX=0;exitY=0.8;exitDx=0;exitDy=0;entryX=0.5;entryY=0;entryDx=0;entryDy=0;fillColor=#dae8fc;strokeColor=#006EAF;strokeWidth=3;" source="x6JtXPcbMbZOkAOCYJe6-6" target="dc6b7143-8754-4fea-bd93-5df7fdc93a3d" parent="1" edge="1"><mxGeometry relative="1" as="geometry" /></mxCell><mxCell id="129c66d3-7a09-4c03-a868-5d7e4881db83" style="edgeStyle=orthogonalEdgeStyle;rounded=0;orthogonalLoop=1;jettySize=auto;html=1;exitX=1;exitY=0.5;exitDx=0;exitDy=0;entryX=0;entryY=0.2;entryDx=0;entryDy=0;fillColor=#dae8fc;strokeColor=#006EAF;strokeWidth=3;" source="dc6b7143-8754-4fea-bd93-5df7fdc93a3d" target="FekDQM8jbrZTuftXHcIN-17" parent="1" edge="1"><mxGeometry relative="1" as="geometry" /></mxCell><mxCell id="15d8ae4f-a3cd-489e-9b51-448ee7f2d46c" style="edgeStyle=orthogonalEdgeStyle;rounded=0;orthogonalLoop=1;jettySize=auto;html=1;exitX=0;exitY=0.8;exitDx=0;exitDy=0;entryX=0.5;entryY=0;entryDx=0;entryDy=0;fillColor=#dae8fc;strokeColor=#006EAF;strokeWidth=3;" source="FekDQM8jbrZTuftXHcIN-17" target="nWbS8f2qcYJRGoIMHePj-22" parent="1" edge="1"><mxGeometry relative="1" as="geometry" /></mxCell></root>
    </mxGraphModel>
  </diagram>
</mxfile>